<mxfile host="app.diagrams.net" modified="2022-03-25T08:18:10.572Z" agent="5.0 (Macintosh; Intel Mac OS X 10_15_7) AppleWebKit/605.1.15 (KHTML, like Gecko) Version/15.4 Safari/605.1.15" etag="_LUHdOG17VBFP427wPaG" version="17.2.2" type="github">
  <diagram id="6qBSWGZqCgJ421mRusej" name="Page-1">
    <mxGraphModel dx="1175" dy="1259" grid="1" gridSize="10" guides="1" tooltips="1" connect="1" arrows="1" fold="1" page="1" pageScale="1" pageWidth="827" pageHeight="1169" math="0" shadow="0">
      <root>
        <mxCell id="0" />
        <mxCell id="1" parent="0" />
        <mxCell id="blIba7tBWrxj8l8xD1Xf-1" value="" style="rounded=0;whiteSpace=wrap;html=1;fillColor=#E5CCFF;" vertex="1" parent="1">
          <mxGeometry x="320" y="630" width="80" height="70" as="geometry" />
        </mxCell>
        <mxCell id="blIba7tBWrxj8l8xD1Xf-3" value="" style="rounded=0;whiteSpace=wrap;html=1;fillColor=#E5CCFF;" vertex="1" parent="1">
          <mxGeometry x="440" y="630" width="80" height="70" as="geometry" />
        </mxCell>
        <mxCell id="blIba7tBWrxj8l8xD1Xf-4" value="" style="rounded=0;whiteSpace=wrap;html=1;fillColor=#E5CCFF;" vertex="1" parent="1">
          <mxGeometry x="560" y="630" width="80" height="70" as="geometry" />
        </mxCell>
        <mxCell id="blIba7tBWrxj8l8xD1Xf-5" value="" style="rounded=0;whiteSpace=wrap;html=1;fillColor=#E5CCFF;" vertex="1" parent="1">
          <mxGeometry x="680" y="630" width="80" height="70" as="geometry" />
        </mxCell>
        <mxCell id="blIba7tBWrxj8l8xD1Xf-6" value="" style="rounded=0;whiteSpace=wrap;html=1;fillColor=#E5CCFF;" vertex="1" parent="1">
          <mxGeometry x="800" y="630" width="80" height="70" as="geometry" />
        </mxCell>
        <mxCell id="blIba7tBWrxj8l8xD1Xf-7" value="" style="rounded=0;whiteSpace=wrap;html=1;fillColor=#E5CCFF;" vertex="1" parent="1">
          <mxGeometry x="200" y="630" width="80" height="70" as="geometry" />
        </mxCell>
        <mxCell id="blIba7tBWrxj8l8xD1Xf-8" value="" style="rounded=0;whiteSpace=wrap;html=1;fillColor=#E5CCFF;" vertex="1" parent="1">
          <mxGeometry x="920" y="630" width="80" height="70" as="geometry" />
        </mxCell>
        <mxCell id="blIba7tBWrxj8l8xD1Xf-9" value="" style="rounded=0;whiteSpace=wrap;html=1;fillColor=#E5CCFF;" vertex="1" parent="1">
          <mxGeometry x="1040" y="630" width="80" height="70" as="geometry" />
        </mxCell>
        <mxCell id="blIba7tBWrxj8l8xD1Xf-10" value="" style="endArrow=classic;html=1;rounded=0;" edge="1" parent="1">
          <mxGeometry width="50" height="50" relative="1" as="geometry">
            <mxPoint x="220" y="490" as="sourcePoint" />
            <mxPoint x="220" y="630" as="targetPoint" />
          </mxGeometry>
        </mxCell>
        <mxCell id="blIba7tBWrxj8l8xD1Xf-11" value="" style="endArrow=classic;html=1;rounded=0;" edge="1" parent="1">
          <mxGeometry width="50" height="50" relative="1" as="geometry">
            <mxPoint x="260" y="490" as="sourcePoint" />
            <mxPoint x="260" y="630" as="targetPoint" />
          </mxGeometry>
        </mxCell>
        <mxCell id="blIba7tBWrxj8l8xD1Xf-12" value="" style="endArrow=classic;html=1;rounded=0;" edge="1" parent="1">
          <mxGeometry width="50" height="50" relative="1" as="geometry">
            <mxPoint x="339.33" y="490" as="sourcePoint" />
            <mxPoint x="339.33" y="630" as="targetPoint" />
          </mxGeometry>
        </mxCell>
        <mxCell id="blIba7tBWrxj8l8xD1Xf-13" value="" style="endArrow=classic;html=1;rounded=0;" edge="1" parent="1">
          <mxGeometry width="50" height="50" relative="1" as="geometry">
            <mxPoint x="379.33" y="490" as="sourcePoint" />
            <mxPoint x="379.33" y="630" as="targetPoint" />
          </mxGeometry>
        </mxCell>
        <mxCell id="blIba7tBWrxj8l8xD1Xf-14" value="" style="endArrow=classic;html=1;rounded=0;" edge="1" parent="1">
          <mxGeometry width="50" height="50" relative="1" as="geometry">
            <mxPoint x="459.33000000000004" y="490" as="sourcePoint" />
            <mxPoint x="459.33000000000004" y="630" as="targetPoint" />
          </mxGeometry>
        </mxCell>
        <mxCell id="blIba7tBWrxj8l8xD1Xf-15" value="" style="endArrow=classic;html=1;rounded=0;" edge="1" parent="1">
          <mxGeometry width="50" height="50" relative="1" as="geometry">
            <mxPoint x="499.33000000000004" y="490" as="sourcePoint" />
            <mxPoint x="499.33000000000004" y="630" as="targetPoint" />
          </mxGeometry>
        </mxCell>
        <mxCell id="blIba7tBWrxj8l8xD1Xf-16" value="" style="endArrow=classic;html=1;rounded=0;" edge="1" parent="1">
          <mxGeometry width="50" height="50" relative="1" as="geometry">
            <mxPoint x="579.3299999999999" y="490" as="sourcePoint" />
            <mxPoint x="579.3299999999999" y="630" as="targetPoint" />
          </mxGeometry>
        </mxCell>
        <mxCell id="blIba7tBWrxj8l8xD1Xf-17" value="" style="endArrow=classic;html=1;rounded=0;" edge="1" parent="1">
          <mxGeometry width="50" height="50" relative="1" as="geometry">
            <mxPoint x="619.3299999999999" y="490" as="sourcePoint" />
            <mxPoint x="619.3299999999999" y="630" as="targetPoint" />
          </mxGeometry>
        </mxCell>
        <mxCell id="blIba7tBWrxj8l8xD1Xf-18" value="" style="endArrow=classic;html=1;rounded=0;" edge="1" parent="1">
          <mxGeometry width="50" height="50" relative="1" as="geometry">
            <mxPoint x="699.3299999999999" y="490" as="sourcePoint" />
            <mxPoint x="699.3299999999999" y="630" as="targetPoint" />
          </mxGeometry>
        </mxCell>
        <mxCell id="blIba7tBWrxj8l8xD1Xf-19" value="" style="endArrow=classic;html=1;rounded=0;" edge="1" parent="1">
          <mxGeometry width="50" height="50" relative="1" as="geometry">
            <mxPoint x="739.3299999999999" y="490" as="sourcePoint" />
            <mxPoint x="739.3299999999999" y="630" as="targetPoint" />
          </mxGeometry>
        </mxCell>
        <mxCell id="blIba7tBWrxj8l8xD1Xf-20" value="" style="endArrow=classic;html=1;rounded=0;" edge="1" parent="1">
          <mxGeometry width="50" height="50" relative="1" as="geometry">
            <mxPoint x="819.33" y="490" as="sourcePoint" />
            <mxPoint x="819.33" y="630" as="targetPoint" />
          </mxGeometry>
        </mxCell>
        <mxCell id="blIba7tBWrxj8l8xD1Xf-21" value="" style="endArrow=classic;html=1;rounded=0;" edge="1" parent="1">
          <mxGeometry width="50" height="50" relative="1" as="geometry">
            <mxPoint x="859.33" y="490" as="sourcePoint" />
            <mxPoint x="859.33" y="630" as="targetPoint" />
          </mxGeometry>
        </mxCell>
        <mxCell id="blIba7tBWrxj8l8xD1Xf-22" value="" style="endArrow=classic;html=1;rounded=0;" edge="1" parent="1">
          <mxGeometry width="50" height="50" relative="1" as="geometry">
            <mxPoint x="939.33" y="490" as="sourcePoint" />
            <mxPoint x="939.33" y="630" as="targetPoint" />
          </mxGeometry>
        </mxCell>
        <mxCell id="blIba7tBWrxj8l8xD1Xf-23" value="" style="endArrow=classic;html=1;rounded=0;" edge="1" parent="1">
          <mxGeometry width="50" height="50" relative="1" as="geometry">
            <mxPoint x="979.33" y="490" as="sourcePoint" />
            <mxPoint x="979.33" y="630" as="targetPoint" />
          </mxGeometry>
        </mxCell>
        <mxCell id="blIba7tBWrxj8l8xD1Xf-24" value="" style="endArrow=classic;html=1;rounded=0;" edge="1" parent="1">
          <mxGeometry width="50" height="50" relative="1" as="geometry">
            <mxPoint x="1059.33" y="490" as="sourcePoint" />
            <mxPoint x="1059.33" y="630" as="targetPoint" />
          </mxGeometry>
        </mxCell>
        <mxCell id="blIba7tBWrxj8l8xD1Xf-25" value="" style="endArrow=classic;html=1;rounded=0;" edge="1" parent="1">
          <mxGeometry width="50" height="50" relative="1" as="geometry">
            <mxPoint x="1099.33" y="490" as="sourcePoint" />
            <mxPoint x="1099.33" y="630" as="targetPoint" />
          </mxGeometry>
        </mxCell>
        <mxCell id="blIba7tBWrxj8l8xD1Xf-26" value="" style="endArrow=classic;html=1;rounded=0;" edge="1" parent="1">
          <mxGeometry width="50" height="50" relative="1" as="geometry">
            <mxPoint x="280" y="664.33" as="sourcePoint" />
            <mxPoint x="320" y="664.33" as="targetPoint" />
          </mxGeometry>
        </mxCell>
        <mxCell id="blIba7tBWrxj8l8xD1Xf-27" value="" style="endArrow=classic;html=1;rounded=0;" edge="1" parent="1">
          <mxGeometry width="50" height="50" relative="1" as="geometry">
            <mxPoint x="400" y="664.3299999999999" as="sourcePoint" />
            <mxPoint x="440" y="664.3299999999999" as="targetPoint" />
          </mxGeometry>
        </mxCell>
        <mxCell id="blIba7tBWrxj8l8xD1Xf-28" value="" style="endArrow=classic;html=1;rounded=0;" edge="1" parent="1">
          <mxGeometry width="50" height="50" relative="1" as="geometry">
            <mxPoint x="520" y="664.3299999999999" as="sourcePoint" />
            <mxPoint x="560" y="664.3299999999999" as="targetPoint" />
          </mxGeometry>
        </mxCell>
        <mxCell id="blIba7tBWrxj8l8xD1Xf-30" value="" style="endArrow=classic;html=1;rounded=0;" edge="1" parent="1">
          <mxGeometry width="50" height="50" relative="1" as="geometry">
            <mxPoint x="640" y="664.3299999999999" as="sourcePoint" />
            <mxPoint x="680" y="664.3299999999999" as="targetPoint" />
          </mxGeometry>
        </mxCell>
        <mxCell id="blIba7tBWrxj8l8xD1Xf-31" value="" style="endArrow=classic;html=1;rounded=0;" edge="1" parent="1">
          <mxGeometry width="50" height="50" relative="1" as="geometry">
            <mxPoint x="760" y="664.3299999999999" as="sourcePoint" />
            <mxPoint x="800" y="664.3299999999999" as="targetPoint" />
          </mxGeometry>
        </mxCell>
        <mxCell id="blIba7tBWrxj8l8xD1Xf-32" value="" style="endArrow=classic;html=1;rounded=0;" edge="1" parent="1">
          <mxGeometry width="50" height="50" relative="1" as="geometry">
            <mxPoint x="880" y="664.3299999999999" as="sourcePoint" />
            <mxPoint x="920" y="664.3299999999999" as="targetPoint" />
          </mxGeometry>
        </mxCell>
        <mxCell id="blIba7tBWrxj8l8xD1Xf-33" value="" style="endArrow=classic;html=1;rounded=0;" edge="1" parent="1">
          <mxGeometry width="50" height="50" relative="1" as="geometry">
            <mxPoint x="1000" y="664.3299999999999" as="sourcePoint" />
            <mxPoint x="1040" y="664.3299999999999" as="targetPoint" />
          </mxGeometry>
        </mxCell>
        <mxCell id="blIba7tBWrxj8l8xD1Xf-34" value="" style="endArrow=classic;html=1;rounded=0;" edge="1" parent="1">
          <mxGeometry width="50" height="50" relative="1" as="geometry">
            <mxPoint x="1120" y="660" as="sourcePoint" />
            <mxPoint x="1200" y="840" as="targetPoint" />
            <Array as="points">
              <mxPoint x="1200" y="660" />
            </Array>
          </mxGeometry>
        </mxCell>
        <mxCell id="blIba7tBWrxj8l8xD1Xf-35" value="" style="endArrow=classic;html=1;rounded=0;" edge="1" parent="1">
          <mxGeometry width="50" height="50" relative="1" as="geometry">
            <mxPoint x="239.33" y="700" as="sourcePoint" />
            <mxPoint x="239.33" y="840" as="targetPoint" />
          </mxGeometry>
        </mxCell>
        <mxCell id="blIba7tBWrxj8l8xD1Xf-36" value="" style="endArrow=classic;html=1;rounded=0;" edge="1" parent="1">
          <mxGeometry width="50" height="50" relative="1" as="geometry">
            <mxPoint x="359.33" y="700" as="sourcePoint" />
            <mxPoint x="359.33" y="840" as="targetPoint" />
          </mxGeometry>
        </mxCell>
        <mxCell id="blIba7tBWrxj8l8xD1Xf-38" value="" style="endArrow=classic;html=1;rounded=0;" edge="1" parent="1">
          <mxGeometry width="50" height="50" relative="1" as="geometry">
            <mxPoint x="479.9999999999999" y="700" as="sourcePoint" />
            <mxPoint x="479.9999999999999" y="840" as="targetPoint" />
          </mxGeometry>
        </mxCell>
        <mxCell id="blIba7tBWrxj8l8xD1Xf-39" value="" style="endArrow=classic;html=1;rounded=0;" edge="1" parent="1">
          <mxGeometry width="50" height="50" relative="1" as="geometry">
            <mxPoint x="599.9999999999999" y="700" as="sourcePoint" />
            <mxPoint x="599.9999999999999" y="840" as="targetPoint" />
          </mxGeometry>
        </mxCell>
        <mxCell id="blIba7tBWrxj8l8xD1Xf-40" value="" style="endArrow=classic;html=1;rounded=0;" edge="1" parent="1">
          <mxGeometry width="50" height="50" relative="1" as="geometry">
            <mxPoint x="720" y="700" as="sourcePoint" />
            <mxPoint x="720" y="840" as="targetPoint" />
          </mxGeometry>
        </mxCell>
        <mxCell id="blIba7tBWrxj8l8xD1Xf-41" value="" style="endArrow=classic;html=1;rounded=0;" edge="1" parent="1">
          <mxGeometry width="50" height="50" relative="1" as="geometry">
            <mxPoint x="840" y="700" as="sourcePoint" />
            <mxPoint x="840" y="840" as="targetPoint" />
          </mxGeometry>
        </mxCell>
        <mxCell id="blIba7tBWrxj8l8xD1Xf-42" value="" style="endArrow=classic;html=1;rounded=0;" edge="1" parent="1">
          <mxGeometry width="50" height="50" relative="1" as="geometry">
            <mxPoint x="959.9999999999999" y="700" as="sourcePoint" />
            <mxPoint x="959.9999999999999" y="840" as="targetPoint" />
          </mxGeometry>
        </mxCell>
        <mxCell id="blIba7tBWrxj8l8xD1Xf-43" value="" style="endArrow=classic;html=1;rounded=0;" edge="1" parent="1">
          <mxGeometry width="50" height="50" relative="1" as="geometry">
            <mxPoint x="1080" y="700" as="sourcePoint" />
            <mxPoint x="1080" y="840" as="targetPoint" />
          </mxGeometry>
        </mxCell>
        <mxCell id="blIba7tBWrxj8l8xD1Xf-44" value="" style="rounded=1;whiteSpace=wrap;html=1;fillColor=#E6D0DE;" vertex="1" parent="1">
          <mxGeometry x="200" y="850" width="920" height="40" as="geometry" />
        </mxCell>
        <mxCell id="blIba7tBWrxj8l8xD1Xf-45" value="&lt;font style=&quot;font-size: 25px&quot;&gt;8&#39;OUTPUT&lt;/font&gt;" style="text;html=1;strokeColor=none;fillColor=none;align=center;verticalAlign=middle;whiteSpace=wrap;rounded=0;" vertex="1" parent="1">
          <mxGeometry x="540" y="855" width="230" height="30" as="geometry" />
        </mxCell>
      </root>
    </mxGraphModel>
  </diagram>
</mxfile>
